<svg width="433" height="90" viewBox="0 0 433 90" version="1.1" xmlns="http://www.w3.org/2000/svg" xmlns:xlink="http://www.w3.org/1999/xlink">
<title>growy logo text</title>
<desc>Created using Figma</desc>
<g id="Canvas" transform="translate(-1296 18)">
<g id="growy logo text">
<g id="Group">
<g id="Vector">
<use xlink:href="#path0_fill" transform="translate(1454.25 21.5353)" fill="#66FF66"/>
</g>
<g id="Vector">
<use xlink:href="#path1_fill" transform="translate(1482.15 22.0653)" fill="#66FF66"/>
</g>
<g id="Vector">
<use xlink:href="#path2_fill" transform="translate(1446.9 -3.25217)" fill="#66FF66"/>
</g>
<g id="Vector">
<use xlink:href="#path3_fill" transform="translate(1469.95 -18)" fill="#66FF66"/>
</g>
<g id="Vector">
<use xlink:href="#path4_fill" transform="translate(1489.53 -2.79594)" fill="#66FF66"/>
</g>
<g id="Vector">
<use xlink:href="#path5_fill" transform="translate(1466.68 3.16526)" fill="#66FF66"/>
</g>
<g id="Vector">
<use xlink:href="#path6_fill" transform="translate(1477.39 20.1163)" fill="#66FF66"/>
</g>
<g id="Vector">
<use xlink:href="#path7_fill" transform="translate(1468.88 15.8393)" fill="#66FF66"/>
</g>
<g id="Vector">
<use xlink:href="#path8_fill" transform="translate(1486.03 15.8393)" fill="#66FF66"/>
</g>
<g id="Vector">
<use xlink:href="#path9_fill" transform="translate(1473.42 13.2903)" fill="#66FF66"/>
</g>
<g id="Vector">
<use xlink:href="#path10_fill" transform="translate(1484.98 13.2903)" fill="#66FF66"/>
</g>
<g id="Vector">
<use xlink:href="#path11_fill" transform="translate(1473.98 14.4043)" fill="#66FF66"/>
</g>
<g id="Vector">
<use xlink:href="#path12_fill" transform="translate(1485.58 14.4043)" fill="#66FF66"/>
</g>
</g>
<g id="Vector">
<use xlink:href="#path13_fill" transform="translate(1296 -13.5997)" fill="#66FF66"/>
</g>
<g id="Vector">
<use xlink:href="#path14_fill" transform="translate(1376.31 -10.0597)" fill="#66FF66"/>
</g>
<g id="Vector">
<use xlink:href="#path15_fill" transform="translate(1376.31 -10.0607)" fill="#66FF66"/>
</g>
<g id="Vector">
<use xlink:href="#path16_fill" transform="translate(1523.3 -10.0588)" fill="#66FF66"/>
</g>
<g id="Vector">
<use xlink:href="#path17_fill" transform="translate(1654.2 -10.0587)" fill="#66FF66"/>
</g>
</g>
</g>
<defs>
<path id="path0_fill" d="M 26.614 9.804C 20.309 49.159 -21.187 12.801 13.984 -7.01904e-07L 26.614 9.804Z"/>
<path id="path1_fill" d="M -5.00488e-06 10.061C 12.129 48.12 45.794 6.128 12.274 1.89209e-06L -5.00488e-06 10.061Z"/>
<path id="path2_fill" d="M 26.9052 10.3724C 4.81516 -20.7636 -17.2738 28.5554 20.1962 24.0594L 26.9052 10.3724Z"/>
<path id="path3_fill" d="M 19.1059 24.0173C 38.2949 -7.82474 -14.2821 -7.95174 3.8789 23.3203L 19.1059 24.0173Z"/>
<path id="path4_fill" d="M -2.31934e-06 10.1732C 22.581 -20.6078 42.313 28.7422 5.88 23.8582L -2.31934e-06 10.1732Z"/>
<path id="path5_fill" d="M 14.506 29.012C 22.5174 29.012 29.012 22.5174 29.012 14.506C 29.012 6.49456 22.5174 0 14.506 0C 6.49456 0 -6.22559e-06 6.49456 -6.22559e-06 14.506C -6.22559e-06 22.5174 6.49456 29.012 14.506 29.012Z"/>
<path id="path6_fill" d="M -6.10352e-07 5.79834e-07C 0.412999 5.045 7.406 5.097 7.588 0.0810019L -6.10352e-07 5.79834e-07Z"/>
<path id="path7_fill" d="M 7.072 1.968C 7.072 3.055 4.468 3.936 2.878 3.936C 1.289 3.936 -4.39453e-06 3.055 -4.39453e-06 1.968C -4.39453e-06 0.880999 1.288 1.52588e-07 2.878 1.52588e-07C 4.467 1.52588e-07 7.072 0.880999 7.072 1.968Z"/>
<path id="path8_fill" d="M -1.2207e-07 1.968C -1.2207e-07 3.055 2.604 3.936 4.194 3.936C 5.784 3.936 7.07201 3.055 7.07201 1.968C 7.07201 1.605 6.92799 1.265 6.67799 0.973999C 6.17799 0.390999 5.253 1.52588e-07 4.194 1.52588e-07C 2.604 1.52588e-07 -1.2207e-07 0.880999 -1.2207e-07 1.968Z"/>
<path id="path9_fill" d="M 1.651 3.386C 2.56282 3.386 3.302 2.62802 3.302 1.693C 3.302 0.757983 2.56282 0 1.651 0C 0.739179 0 0 0.757983 0 1.693C 0 2.62802 0.739179 3.386 1.651 3.386Z"/>
<path id="path10_fill" d="M 1.651 3.386C 2.56282 3.386 3.302 2.62802 3.302 1.693C 3.302 0.757983 2.56282 0 1.651 0C 0.739176 0 -3.17383e-06 0.757983 -3.17383e-06 1.693C -3.17383e-06 2.62802 0.739176 3.386 1.651 3.386Z"/>
<path id="path11_fill" d="M 0.578999 1.158C 0.898772 1.158 1.15799 0.898774 1.15799 0.579001C 1.15799 0.259228 0.898772 0 0.578999 0C 0.259226 0 3.90625e-06 0.259228 3.90625e-06 0.579001C 3.90625e-06 0.898774 0.259226 1.158 0.578999 1.158Z"/>
<path id="path12_fill" d="M 0.578999 1.158C 0.898772 1.158 1.15799 0.898774 1.15799 0.579001C 1.15799 0.259228 0.898772 0 0.578999 0C 0.259226 0 4.02832e-06 0.259228 4.02832e-06 0.579001C 4.02832e-06 0.898774 0.259226 1.158 0.578999 1.158Z"/>
<path id="path13_fill" d="M 29.129 84.761C 7.996 84.761 0 76.765 0 69.454C 0 62.829 6.282 62.714 6.282 61.001C 6.282 59.516 0.113 56.318 0.113 51.291C 0.113 43.18 9.366 40.781 9.366 39.182C 9.366 37.811 1.598 32.557 1.598 24.103C 1.598 10.28 18.848 3.884 30.386 3.884C 36.211 3.884 44.093 6.054 48.092 6.054C 56.774 6.054 61.114 2.28882e-08 62.828 2.28882e-08C 65.455 2.28882e-08 66.598 3.427 66.598 5.598C 66.598 11.995 60.201 16.564 60.201 17.821C 60.201 18.963 60.543 20.22 60.543 21.362C 60.543 36.784 42.608 42.038 30.043 42.038C 28.101 42.038 26.159 41.696 24.102 41.696C 22.16 41.696 21.018 42.953 21.018 44.78C 21.018 48.321 26.044 49.007 28.673 49.007C 32.214 49.007 45.465 47.065 50.035 47.065C 61.915 47.065 66.941 53.805 66.941 60.659C 66.941 70.939 57.117 84.761 29.129 84.761ZM 30.271 74.937C 34.041 74.937 42.608 74.366 42.608 69.111C 42.608 66.712 40.323 65.684 38.153 65.684C 36.44 65.684 31.984 66.369 28.329 66.369C 25.702 66.369 19.533 65.455 18.277 65.455C 17.249 65.455 16.906 66.483 16.906 67.283C 16.906 73.338 25.817 74.937 30.271 74.937ZM 30.957 12.223C 26.502 12.223 24.56 16.45 24.56 20.448C 24.56 24.788 25.702 34.27 31.528 34.27C 36.668 34.27 38.382 29.815 38.382 25.359C 38.382 20.676 37.354 12.223 30.957 12.223Z"/>
<path id="path14_fill" d="M 7.768 23.419C 7.768 12.224 0.684997 18.507 0.684997 11.538C 0.684997 2.514 27.417 -1.52588e-08 28.444 -1.52588e-08C 32.785 -1.52588e-08 32.899 1.142 33.357 5.026C 33.471 6.397 33.357 9.024 35.299 9.024C 38.04 9.024 39.753 -1.52588e-08 49.577 -1.52588e-08C 57.232 -1.52588e-08 62.257 5.712 62.257 13.251C 62.257 20.904 55.746 26.959 48.207 26.959C 40.781 26.959 38.725 20.448 35.755 20.448C 32.557 20.448 33.128 28.101 33.128 30.158C 33.128 33.585 33.47 38.383 34.042 42.723C 34.728 47.749 43.409 44.665 43.409 51.519C 43.409 58.716 33.357 59.287 20.791 59.287C 15.536 59.287 -7.93457e-07 59.516 -7.93457e-07 51.633C -7.93457e-07 46.835 5.255 46.835 6.511 42.837C 7.425 39.981 7.768 33.47 7.768 30.272L 7.768 23.419Z"/>
<path id="path15_fill" d="M 7.768 23.419C 7.768 12.224 0.684997 18.507 0.684997 11.538C 0.684997 2.514 27.417 5.72205e-08 28.444 5.72205e-08C 32.785 5.72205e-08 32.899 1.142 33.357 5.026C 33.471 6.397 33.357 9.024 35.299 9.024C 38.04 9.024 39.753 5.72205e-08 49.577 5.72205e-08C 57.232 5.72205e-08 62.257 5.712 62.257 13.251C 62.257 20.904 55.746 26.959 48.207 26.959C 40.781 26.959 38.725 20.448 35.755 20.448C 32.557 20.448 33.128 28.101 33.128 30.158C 33.128 33.585 33.47 38.383 34.042 42.723C 34.728 47.749 43.409 44.665 43.409 51.519C 43.409 58.716 33.357 59.287 20.791 59.287C 15.536 59.287 -7.93457e-07 59.516 -7.93457e-07 51.633C -7.93457e-07 46.835 5.255 46.835 6.511 42.837C 7.425 39.981 7.768 33.47 7.768 30.272L 7.768 23.419Z"/>
<path id="path16_fill" d="M 63.855 37.355C 63.055 36.098 61.799 33.585 60.086 33.585C 57.687 33.585 56.088 36.898 55.06 38.726L 46.721 53.234C 45.123 55.862 43.18 59.288 39.639 59.288C 35.412 59.288 32.899 54.718 30.957 51.52L 9.253 16.222C 5.598 10.168 5.24902e-06 13.709 5.24902e-06 7.88304C 5.24902e-06 0.572044 17.478 0.00104409 22.733 0.00104409C 27.188 0.00104409 41.01 0.115045 41.01 6.85504C 41.01 9.48304 38.839 10.51 38.839 11.996C 38.839 13.938 44.094 24.105 46.95 24.105C 49.006 24.105 52.205 18.164 52.205 16.565C 52.205 11.082 45.123 11.082 45.123 6.85504C 45.123 4.57004 45.694 0.00104409 68.083 0.00104409C 72.424 0.00104409 84.647 -0.226956 84.647 6.05504C 84.647 10.168 80.992 10.51 80.992 13.138C 80.992 15.423 85.333 24.333 87.847 24.333C 91.274 24.333 95.614 13.938 95.614 13.138C 95.614 10.282 92.416 9.59704 92.416 5.82704C 92.416 0.115045 102.583 0.00104409 106.352 0.00104409C 110.236 0.00104409 120.289 0.00104427 120.289 5.71304C 120.289 12.11 113.32 7.54104 108.18 17.136L 93.556 45.808C 91.614 49.463 86.588 59.288 81.561 59.288C 77.106 59.288 71.737 50.035 69.681 46.723L 63.855 37.355Z"/>
<path id="path17_fill" d="M 50.834 48.435C 45.236 63.628 37.926 78.478 19.306 78.478C 11.08 78.478 1.37099 74.251 1.37099 64.77C 1.37099 59.058 5.71101 54.26 11.538 54.26C 22.162 54.26 19.191 66.369 23.875 66.369C 26.959 66.369 28.33 63.399 28.33 60.772C 28.33 57.573 26.045 53.232 24.675 50.377L 8.68199 16.907C 6.51099 12.337 -1.34277e-05 13.708 -1.34277e-05 8.453C -1.34277e-05 5.026 2.05601 -8.77381e-08 26.159 -8.77381e-08C 30.499 -8.77381e-08 40.781 0.457 40.781 6.968C 40.781 10.052 38.154 10.966 38.154 13.708C 38.154 18.049 43.18 26.045 45.121 26.045C 48.549 26.045 50.947 18.163 50.947 15.422C 50.947 10.281 47.292 10.624 47.292 6.74C 47.292 0.686 58.03 -8.77381e-08 62.143 -8.77381e-08C 65.912 -8.77381e-08 74.365 0.571 74.365 5.826C 74.365 12.566 67.511 9.596 63.513 16.335C 61 20.333 59.172 25.36 57.573 29.815L 50.834 48.435Z"/>
</defs>
</svg>
