<svg id="Layer_1" data-name="Layer 1" xmlns="http://www.w3.org/2000/svg" viewBox="0 0 478.4761 484.936"><defs><style>.cls-1{fill:#fff;}.cls-2{fill:#f398c0;}.cls-3{fill:#6f6;}</style></defs><title>Artboard 1 copy 6</title><circle class="cls-1" cx="233.8787" cy="239.0676" r="220.7691"/><path class="cls-2" d="M233.8949,120.3854a20.3908,20.3908,0,0,1,36.4667,16.31c-1.9917,9.7015-6.99,17.6455-13.4946,24.7853a64.8331,64.8331,0,0,1-21.3044,15.9679,3.8226,3.8226,0,0,1-3.4477.0162c-9.6409-4.4094-17.4351-11.1353-24.0884-19.2533a48.8888,48.8888,0,0,1-10.28-19.7658c-1.8818-7.933-.57-15.0189,5.3971-20.8566a20.3271,20.3271,0,0,1,29.6043,1.4709C233.1015,119.4785,233.4646,119.8887,233.8949,120.3854Z"/><path class="cls-3" d="M212.5106,214.5687c17.6273-20.89,21.767-21.8146,39.8358-4.8506,6.5749,6.1729,8.98,1.7885,12.8165-1.6243,7.7682-6.9107,15.4487-13.5566,26.9581-7.482,10.6058,5.5977,9.7686,15.4181,9.7473,24.9635-.069,31.0132-15.3107,54.4-44.4936,64.1909-10.8977,3.6563-13.2876,8.7911-13.0645,19.0567.5837,26.8684.5132,53.7639.0021,80.6353-.1523,8.0047,4.4932,21.1858-8.9829,21.2715-14.8522.0944-9.7258-13.8053-9.9106-22.2812-.5727-26.2712-.7029-52.5764.0211-78.84.3093-11.2221-3.0819-16.6677-14.1437-20.7193C182.1555,278.2159,167.32,254.89,167.379,224.1c.0191-9.9032.558-18.8756,11.4613-23.8841,10.3224-4.7417,17.04.86,24.1181,6.4808C206.1893,209.2628,209.33,211.942,212.5106,214.5687Zm-26.38,5.023c-3.0838,24.5367,6.7653,40.5019,25.305,51.1544,17.7228,10.1831,35.7059,8.422,52.0917-3.4264,16.7207-12.0906,23.2014-28.7919,20.1764-51.9473-10.0137,8.9388-17.3454,20.5856-26.7377,22.5935-12.1042,2.5877-12.4217-16.2082-22.6026-21.0217-8.694,5.889-10.6135,22.4705-20.6335,21.9513C204.9309,238.44,196.6777,227.4564,186.13,219.5918Z"/><path class="cls-3" d="M198.685,364.301c-30.9507-1.6169-59.3567-31.0157-59.7316-60.0391-.1336-10.3389,3.7217-14.8807,14.8883-14.4145,30.2148,1.2616,59.1426,29.296,61.0371,59.4244C215.7534,363.18,208.1672,365.3554,198.685,364.301Zm-39.7781-54.962c4.42,18.5381,14.3608,28.5366,28.9007,34.1211,3.46,1.3291,5.7547-1.9977,4.6479-5.2495C187.3784,323.2936,177.3707,313.639,158.9069,309.339Z"/><path class="cls-3" d="M315.5939,290.0719c11.0615-2.0826,14.8971,3.19,14.98,13.664.2372,30.1036-30.5679,60.6665-60.8627,60.7313-10.7191.0229-15.0844-3.9953-14.5391-14.6847C256.7229,319.383,284.7759,291.4745,315.5939,290.0719Zm-34.0817,54.0514c.5746-.1371,1.144-.3028,1.7245-.407,8.9383-1.6035,27.2-21.5463,26.6977-29.0553-.1845-2.7567-1.3966-4.1222-4.1849-4.4551-7.4943-.8944-26.9893,17.2218-28.8042,26.7444C276.1888,340.9192,276.2012,344.1391,281.5122,344.1233Z"/></svg>